<svg id="SvgjsSvg1011" width="288" height="288" xmlns="http://www.w3.org/2000/svg" version="1.1" xmlns:xlink="http://www.w3.org/1999/xlink" xmlns:svgjs="http://svgjs.com/svgjs"><defs id="SvgjsDefs1012"></defs><g id="SvgjsG1013" transform="matrix(1,0,0,1,0,0)"><svg xmlns="http://www.w3.org/2000/svg" enable-background="new 0 0 512 512" viewBox="0 0 512 512" width="288" height="288"><path d="M272.286 42.812l-.055-29.848C272.34 5.774 266.458 0 259.377 0h-6.754c-7.081 0-12.963 5.774-12.963 12.963v29.848c5.229-1.362 10.676-2.07 16.34-2.07C261.61 40.742 267.111 41.45 272.286 42.812zM264.238 244.725h14.312l-4.249-12.908h-10.063v-14.973c0-4.535-3.703-8.146-8.238-8.146-4.535 0-8.238 3.61-8.238 8.146v14.973h-10.063l-4.249 12.908h14.312v13.678c0 4.535 3.703 8.238 8.238 8.238 4.535 0 8.238-3.703 8.238-8.238V244.725zM334.533 244.725c1.218 1.383 2.952 2.294 4.956 2.294h30.637c3.702 0 6.664-2.963 6.664-6.665v-5.368c0-3.702-2.962-6.664-6.664-6.664h-30.637c-2.53 0-4.634 1.439-5.764 3.495h-6.862l4.248 12.908H334.533zM141.874 247.019h30.637c2.004 0 3.738-.911 4.956-2.294h3.422l4.248-12.963h-6.899c-1.139-2.025-3.221-3.441-5.727-3.441h-30.637c-3.702 0-6.664 2.962-6.664 6.664v5.368C135.21 244.056 138.172 247.019 141.874 247.019zM173.59 391.517l73.205-222.23c-9.641-1.307-18.573-4.848-26.363-9.967l-51.418 156.269c-8.116 24.456-10.458 50.002-7.517 74.567C162.315 396.8 171.52 397.835 173.59 391.517zM332.909 292.167c.817 0 1.634 0 2.397.108l-43.738-132.956c-7.789 5.12-16.722 8.66-26.363 9.967l43.193 131.104C315.207 295.217 323.704 292.167 332.909 292.167zM332.909 373.814h-.327l5.828 17.648c2.07 6.373 11.275 5.338 12.092-1.307.817-6.972 1.198-13.998 1.198-21.025C346.09 372.126 339.663 373.814 332.909 373.814zM256 159.086c29.674 0 53.731-24.057 53.731-53.731 0-29.673-24.058-53.731-53.731-53.731s-53.731 24.058-53.731 53.731C202.269 135.029 226.326 159.086 256 159.086zM256 81.174c13.355 0 24.182 10.827 24.182 24.181 0 13.355-10.827 24.182-24.182 24.182-13.355 0-24.182-10.827-24.182-24.182C231.818 92.001 242.645 81.174 256 81.174zM332.886 303.037c-16.598 0-29.999 13.4-29.999 29.999 0 16.474 13.402 29.876 29.999 29.876 16.475 0 29.876-13.402 29.876-29.876C362.762 316.437 349.361 303.037 332.886 303.037zM332.841 344.055c-6.105-.01-11.056-4.962-11.056-11.078 0-6.1 4.95-11.043 11.056-11.048 6.108.005 11.053 4.947 11.053 11.048C343.894 339.088 338.949 344.045 332.841 344.055zM464.097 414.22h-9.77v17.342c0 3.5-2.768 6.269-6.187 6.269-3.501 0-6.269-2.769-6.269-6.269V414.22l-19.54-.082v9.283c0 3.501-2.768 6.268-6.269 6.268-3.42 0-6.188-2.767-6.188-6.268v-9.283l-19.54-.081v17.505c0 3.5-2.768 6.269-6.269 6.269-3.42 0-6.269-2.769-6.269-6.269v-17.505h-19.458v9.364c0 3.501-2.849 6.268-6.269 6.268-3.501 0-6.269-2.767-6.269-6.268v-9.445h-19.54v17.586c0 3.5-2.768 6.269-6.188 6.269-3.501 0-6.269-2.769-6.269-6.269v-17.586l-19.54-.082v9.527c0 3.501-2.768 6.268-6.269 6.268-3.419 0-6.188-2.767-6.188-6.268v-9.527h-19.539v17.669c0 3.5-2.769 6.269-6.269 6.269-3.419 0-6.269-2.769-6.269-6.269v-17.749h-19.458v9.607c0 3.501-2.85 6.268-6.269 6.268-3.501 0-6.269-2.767-6.269-6.268v-9.607l-19.539-.082v17.83c0 3.5-2.769 6.269-6.188 6.269-3.501 0-6.269-2.769-6.269-6.269v-17.83h-19.54v9.689c0 3.501-2.768 6.268-6.269 6.268-3.42 0-6.188-2.767-6.188-6.268v-9.771h-19.539v17.912c0 3.5-2.85 6.269-6.269 6.269s-6.269-2.769-6.269-6.269V413.65l-19.458-.081v9.852c0 3.501-2.849 6.268-6.269 6.268-3.501 0-6.269-2.767-6.269-6.268v-9.852l-19.54-.081v18.074c0 3.5-2.768 6.269-6.187 6.269-3.501 0-6.269-2.769-6.269-6.269v-18.074h-9.526c-9.281 0-16.853 7.572-16.935 16.852l-.163 64.074c0 9.281 7.491 16.852 16.853 16.852L463.853 512c9.363 0 16.934-7.489 16.934-16.852l.163-63.992C480.95 421.793 473.46 414.22 464.097 414.22z" fill="#71bf6a" class="color000 svgShape"></path></svg></g></svg>