<svg width="100" height="79" viewBox="0 0 100 79" fill="none" xmlns="http://www.w3.org/2000/svg">
<rect width="50" height="79" fill="#34A42A" fill-opacity="0.7"/>
<rect x="51" y="1" width="48" height="77" fill="#FDCF2E" fill-opacity="0.7" stroke="#332F2F" stroke-width="2" stroke-dasharray="20 10"/>
<path d="M74.3041 30.4478C74.3041 40.9823 65.5534 49.618 54.6392 49.618C43.725 49.618 34.9742 40.9823 34.9742 30.4478C34.9742 19.9134 43.725 11.2777 54.6392 11.2777C65.5534 11.2777 74.3041 19.9134 74.3041 30.4478Z" stroke="#332F2F" stroke-width="5"/>
<path d="M31.1363 49.5645C32.649 47.9546 35.1015 47.9546 36.6142 49.5645L38.426 51.4928C39.9387 53.1028 39.9387 55.7131 38.426 57.3231L23.3715 73.3456C21.8588 74.9556 19.4063 74.9556 17.8936 73.3456L16.0818 71.4173C14.5691 69.8074 14.5691 67.1971 16.0818 65.5871L31.1363 49.5645Z" fill="#332F2F"/>
<rect width="4.25836" height="22.3564" transform="matrix(0.684747 0.72878 -0.684747 0.72878 40.0508 44.4375)" fill="#332F2F"/>
<path d="M66.6666 25.6546C69.1666 28.0979 69.3719 34.1525 66.6666 36.2422" stroke="#332F2F" stroke-width="2" stroke-linecap="round"/>
</svg>
